<svg xmlns="http://www.w3.org/2000/svg" viewBox="0 0 640 520" role="img" aria-labelledby="t d">
  <title id="t">Indian school children learning together</title>
  <desc id="d">Decorative illustration for preschool hero section.</desc>
  <rect width="640" height="520" rx="36" fill="#eef5ff"/>
  <circle cx="530" cy="95" r="52" fill="#ffd39d"/>
  <rect x="54" y="314" width="530" height="126" rx="26" fill="#dfeeff"/>
  <rect x="100" y="286" width="430" height="32" rx="16" fill="#1f6ed4"/>
  <g transform="translate(118 132)">
    <circle cx="64" cy="68" r="38" fill="#9b5c39"/>
    <circle cx="64" cy="78" r="34" fill="#f4c39c"/>
    <rect x="28" y="116" width="72" height="88" rx="20" fill="#ff9b3d"/>
    <rect x="18" y="202" width="28" height="76" rx="12" fill="#263238"/>
    <rect x="82" y="202" width="28" height="76" rx="12" fill="#263238"/>
  </g>
  <g transform="translate(260 112)">
    <circle cx="80" cy="70" r="40" fill="#2d2d2d"/>
    <circle cx="80" cy="82" r="36" fill="#f3bf9b"/>
    <rect x="34" y="122" width="92" height="104" rx="24" fill="#1f6ed4"/>
    <rect x="30" y="224" width="32" height="86" rx="12" fill="#1d3557"/>
    <rect x="98" y="224" width="32" height="86" rx="12" fill="#1d3557"/>
  </g>
  <g transform="translate(410 140)">
    <circle cx="62" cy="64" r="36" fill="#4c2b20"/>
    <circle cx="62" cy="74" r="32" fill="#f0bb95"/>
    <rect x="26" y="110" width="72" height="88" rx="20" fill="#50b98b"/>
    <rect x="18" y="194" width="26" height="74" rx="12" fill="#263238"/>
    <rect x="80" y="194" width="26" height="74" rx="12" fill="#263238"/>
  </g>
  <g fill="#fff">
    <circle cx="172" cy="318" r="11"/>
    <circle cx="342" cy="318" r="11"/>
    <circle cx="472" cy="318" r="11"/>
  </g>
</svg>
